# xmcd
#
# Track frame offsets:
# 150
# 18389
# 37851
# 55529
# 70781
# 87681
# 105979
# 125579
# 155064
# 179504
# 199804
#
# Disc length: 2803 seconds
#
#
# Revision: 1
# Processed by: cddbd v1.5.2PL0 Copyright (c) Steve Scherf et al.
# Submitted via: FreeRIP 2.951 
#
DISCID=8f0af10b
DTITLE=Gonzaguinha - Gonzaguinha
DYEAR=2001
DGENRE=Coletânea
TTITLE0=Moleque
TTITLE1=Um abraço terno em você, viu Mãe?
TTITLE2=Por um segundo
TTITLE3=Plano sensacional
TTITLE4=Felícia
TTITLE5=Eu quero
TTITLE6=Sanfona de prata
TTITLE7=O Trem (Você se lembra daquela nega maluca que desfilou nua pelas ruas de Madureira?)
TTITLE8=Parada obrigatória para pensar
TTITLE9=Africasiamérica
TTITLE10=Pobreza por pobreza - Jorge Nery
EXTD=
EXTT0=Gonzaguinha
EXTT1=Gonzaguinha
EXTT2=Gonzaguinha
EXTT3=Gonzaguinha
EXTT4=Gonzaguinha
EXTT5=Gonzaguinha
EXTT6=Gonzaguinha
EXTT7=Gonzaguinha
EXTT8=Gonzaguinha
EXTT9=Gonzaguinha
EXTT10=
PLAYORDER=
